<svg width="800" height="400" viewBox="0 0 800 400" xmlns="http://www.w3.org/2000/svg">
  <rect width="800" height="400" fill="#87CEEB"/>
  <rect x="300" y="100" width="60" height="200" fill="#708090" stroke="#4682B4" stroke-width="4"/>
  <circle cx="330" cy="90" r="40" fill="#D3D3D3"/>
  <path d="M330 50 Q340 40 350 50 Q360 60 350 70 Q340 60 330 50" fill="#A9A9A9"/>
  <path d="M330 130 Q340 120 350 130 Q360 140 350 150 Q340 140 330 130" fill="#A9A9A9"/>
  <path d="M300 80 L280 70 L290 60 Z" fill="#FF8C00"/>
  <path d="M360 80 L380 70 L370 60 Z" fill="#FF8C00"/>
  <path d="M300 140 L280 130 L290 120 Z" fill="#FF8C00"/>
  <path d="M360 140 L380 130 L370 120 Z" fill="#FF8C00"/>
  <text x="400" y="380" font-family="Arial" font-size="24" fill="#333" text-anchor="middle">Wind Energy</text>
</svg>
